<?xml version="1.0" encoding="utf-8"?>
<svg version="1.1" x="0px" y="0px" viewBox="0 0 66.7 62.1" style="enable-background:new 0 0 66.7 62.1;">
<path d="M66.7,42.5l-7.2-7.2c-1.8-4.5-5.2-8.2-9.5-10.4l3.8-3.8c4.8-4.8,4.8-12.7,0-17.5C51.5,1.3,48.4,0,45.1,0s-6.4,1.3-8.7,3.6
	l-4.9,4.9l-4.9-4.9C24.3,1.3,21.2,0,17.9,0s-6.4,1.3-8.7,3.6c-4.8,4.8-4.8,12.7,0,17.5l3.1,3.1C5.1,27.1,0,34.2,0,42.4
	c0,10.9,8.8,19.7,19.7,19.7h21.5c8.3,0,15.4-5.2,18.3-12.5L66.7,42.5z M36.4,29.5v26h-6.7v-26H36.4z M41,8.4c1.1-1.1,2.5-1.7,4-1.7
	s3,0.6,4,1.7c2.2,2.2,2.2,5.9,0,8.1L42.5,23c-0.5,0-0.9-0.1-1.4-0.1H26.5L41,8.4z M13.6,8.4c1.1-1.1,2.5-1.7,4-1.7s3,0.6,4,1.7
	l4.9,4.9l-8.1,8.1l-4.9-4.9C11.3,14.2,11.3,10.6,13.6,8.4z M6.4,42.5c0-7.2,5.8-13,13-13h1.8v26h-1.8C12.2,55.5,6.4,49.7,6.4,42.5z
	 M45,54.9V30.1c5.3,1.6,9.2,6.6,9.2,12.4S50.3,53.3,45,54.9z"/>
<path d="M13.6,37c-2.1,0-3.8,1.7-3.8,3.8c0,0.9,0.7,1.7,1.7,1.7s1.7-0.7,1.7-1.7c0-0.3,0.2-0.5,0.5-0.5s0.5,0.2,0.5,0.5
	c0,0.9,0.7,1.7,1.7,1.7c0.9,0,1.7-0.7,1.7-1.7C17.4,38.7,15.7,37,13.6,37z"/>
</svg>
